<svg width="30" height="30" viewBox="0 0 30 30" fill="none" xmlns="http://www.w3.org/2000/svg">
<path d="M21.8792 0H8.12071C3.64288 0 0 3.64288 0 8.12071V21.8795C0 26.3571 3.64288 29.9999 8.12071 29.9999H21.8795C26.3571 29.9999 29.9999 26.3571 29.9999 21.8795V8.12071C29.9999 3.64288 26.3571 0 21.8792 0V0ZM28.2412 21.8795C28.2412 25.3873 25.3873 28.2412 21.8792 28.2412H8.12071C4.61265 28.2412 1.75872 25.3873 1.75872 21.8795V8.12071C1.75872 4.61265 4.61265 1.75872 8.12071 1.75872H21.8795C25.3873 1.75872 28.2412 4.61265 28.2412 8.12071V21.8795Z" fill="url(#paint0_linear)"/>
<path d="M14.9998 6.79688C10.4766 6.79688 6.79688 10.4766 6.79688 14.9998C6.79688 19.5229 10.4766 23.2026 14.9998 23.2026C19.5229 23.2026 23.2026 19.5229 23.2026 14.9998C23.2026 10.4766 19.5229 6.79688 14.9998 6.79688ZM14.9998 21.4439C11.4466 21.4439 8.5556 18.5531 8.5556 14.9998C8.5556 11.4466 11.4466 8.5556 14.9998 8.5556C18.5531 8.5556 21.4439 11.4466 21.4439 14.9998C21.4439 18.5531 18.5531 21.4439 14.9998 21.4439Z" fill="url(#paint1_linear)"/>
<path d="M23.4004 3.88379C22.0637 3.88379 20.9766 4.9712 20.9766 6.30764C20.9766 7.64431 22.0637 8.73173 23.4004 8.73173C24.7371 8.73173 25.8245 7.64431 25.8245 6.30764C25.8245 4.97098 24.7371 3.88379 23.4004 3.88379ZM23.4004 6.97277C23.0337 6.97277 22.7353 6.67431 22.7353 6.30764C22.7353 5.94075 23.0337 5.64251 23.4004 5.64251C23.7673 5.64251 24.0658 5.94075 24.0658 6.30764C24.0658 6.67431 23.7673 6.97277 23.4004 6.97277Z" fill="url(#paint2_linear)"/>
<defs>
<linearGradient id="paint0_linear" x1="0.0506365" y1="15" x2="30.0506" y2="15" gradientUnits="userSpaceOnUse">
<stop stop-color="#C72C76"/>
<stop offset="1" stop-color="#B12BC7"/>
</linearGradient>
<linearGradient id="paint1_linear" x1="6.82457" y1="14.9998" x2="23.2303" y2="14.9998" gradientUnits="userSpaceOnUse">
<stop stop-color="#C72C76"/>
<stop offset="1" stop-color="#B12BC7"/>
</linearGradient>
<linearGradient id="paint2_linear" x1="20.9847" y1="6.30776" x2="25.8327" y2="6.30776" gradientUnits="userSpaceOnUse">
<stop stop-color="#C72C76"/>
<stop offset="1" stop-color="#B12BC7"/>
</linearGradient>
</defs>
</svg>
