<svg width="30" height="23" viewBox="0 0 30 23" fill="none" xmlns="http://www.w3.org/2000/svg">
<path d="M19.6169 10.0192L12.9892 6.39276C12.6082 6.18425 12.1577 6.19204 11.7842 6.41336C11.4104 6.63492 11.1875 7.02631 11.1875 7.46072V14.6512C11.1875 15.0836 11.4091 15.4743 11.7803 15.6961C11.9742 15.8119 12.1891 15.87 12.4045 15.87C12.6018 15.87 12.7995 15.8213 12.9815 15.7233L19.6094 12.1594C20.0028 11.9477 20.2484 11.5387 20.2503 11.0917C20.2519 10.6447 20.0092 10.2338 19.6169 10.0192ZM12.9455 13.7467V8.37259L17.899 11.083L12.9455 13.7467Z" fill="url(#paint0_linear)"/>
<path d="M29.7792 5.36291L29.7779 5.34918C29.7525 5.10771 29.4995 2.95989 28.4554 1.86744C27.2485 0.582502 25.8803 0.426405 25.2222 0.351561C25.1677 0.345381 25.1179 0.339659 25.0732 0.333708L25.0208 0.328215C21.0548 0.0398253 15.0652 0.000457762 15.0052 0.000228881L14.9999 0L14.9947 0.000228881C14.9347 0.000457762 8.94512 0.0398253 4.94337 0.328215L4.8905 0.333708C4.84793 0.33943 4.80101 0.344695 4.74997 0.350646C4.09949 0.425719 2.74588 0.582044 1.53556 1.91344C0.541075 2.99422 0.2536 5.09603 0.224074 5.33224L0.220641 5.36291C0.211715 5.46339 0 7.85542 0 10.2568V12.5017C0 14.9031 0.211715 17.2952 0.220641 17.3959L0.222243 17.411C0.247649 17.6486 0.500334 19.757 1.53968 20.8499C2.67447 22.0918 4.10933 22.2562 4.88111 22.3445C5.00311 22.3585 5.10816 22.3704 5.1798 22.383L5.24916 22.3926C7.53911 22.6105 14.7189 22.7178 15.0233 22.7222L15.0324 22.7224L15.0416 22.7222C15.1016 22.7219 21.0909 22.6826 25.057 22.3942L25.1094 22.3887C25.1595 22.382 25.2158 22.3761 25.2776 22.3697C25.9244 22.301 27.2707 22.1584 28.4643 20.8451C29.4588 19.7641 29.7465 17.6623 29.7758 17.4263L29.7792 17.3956C29.7882 17.2949 30.0001 14.9031 30.0001 12.5017V10.2568C29.9999 7.85542 29.7882 5.46362 29.7792 5.36291ZM28.2418 12.5017C28.2418 14.7244 28.0478 17.0134 28.0294 17.2235C27.9548 17.8024 27.6516 19.1322 27.167 19.6588C26.42 20.4807 25.6525 20.5622 25.0922 20.6215C25.0245 20.6286 24.9618 20.6354 24.905 20.6425C21.0689 20.9199 15.3055 20.9625 15.04 20.9641C14.7422 20.9598 7.66751 20.8515 5.44737 20.6453C5.33361 20.6268 5.2107 20.6126 5.08116 20.5979C4.42404 20.5226 3.52454 20.4196 2.83286 19.6588L2.81661 19.6414C2.34054 19.1454 2.04597 17.9019 1.97112 17.2304C1.95716 17.0715 1.75803 14.7555 1.75803 12.5017V10.2568C1.75803 8.0367 1.95167 5.75018 1.97044 5.53571C2.05947 4.85388 2.36846 3.60465 2.83286 3.09973C3.60281 2.25288 4.41466 2.15903 4.95161 2.09701C5.00288 2.09106 5.05072 2.08556 5.09489 2.07984C8.98678 1.80106 14.7917 1.75964 14.9999 1.75803C15.2082 1.75941 21.011 1.80106 24.8684 2.07984C24.9158 2.08579 24.9675 2.09174 25.0231 2.09815C25.5754 2.16109 26.4101 2.25631 27.1762 3.07341L27.1833 3.08097C27.6593 3.57695 27.9539 4.84221 28.0288 5.52725C28.042 5.67716 28.2418 7.99824 28.2418 10.2568V12.5017Z" fill="url(#paint1_linear)"/>
<defs>
<linearGradient id="paint0_linear" x1="11.2028" y1="11.0559" x2="20.2656" y2="11.0559" gradientUnits="userSpaceOnUse">
<stop stop-color="#C72C76"/>
<stop offset="1" stop-color="#B12BC7"/>
</linearGradient>
<linearGradient id="paint1_linear" x1="0.0506368" y1="11.3612" x2="30.0507" y2="11.3612" gradientUnits="userSpaceOnUse">
<stop stop-color="#C72C76"/>
<stop offset="1" stop-color="#B12BC7"/>
</linearGradient>
</defs>
</svg>
