<svg width="60" height="55" viewBox="0 0 60 55" fill="none" xmlns="http://www.w3.org/2000/svg">
<path d="M54.8727 4.79451C51.8849 1.88942 47.9305 0.18843 43.7667 0.0173075C39.2528 -0.187864 34.8472 1.43804 31.5487 4.52635L30.032 5.93524L28.7668 4.75983C21.9166 -1.60237 11.206 -1.20661 4.84392 5.64363C4.72954 5.76673 4.61704 5.89158 4.50641 6.01805L4.17315 6.39821C-1.67456 13.1133 -1.33881 23.2057 4.94245 29.5172L29.3266 53.9013C29.5137 54.0884 29.7674 54.1937 30.032 54.1937H30.039C30.3057 54.1925 30.5607 54.0848 30.7475 53.8943L55.2084 28.7329C61.7261 22.0297 61.5758 11.3121 54.8727 4.79451ZM5.67583 7.71219L6.00909 7.33103C8.65887 4.28127 12.4395 2.44619 16.475 2.25125C16.7404 2.23828 17.0048 2.23029 17.2732 2.23029C21.0373 2.22319 24.6627 3.65041 27.4118 6.22148L29.3565 8.02749C29.7394 8.38308 30.3316 8.38308 30.7145 8.02749L32.9077 5.98899C38.941 0.379009 48.3798 0.722251 53.9896 6.75555C56.334 9.27673 57.734 12.5312 57.9524 15.967H45.5139C44.3376 13.498 41.4294 12.3885 38.9074 13.4465L32.8578 15.967H27.2701L21.2205 13.4465C18.6986 12.3885 15.7904 13.498 14.6141 15.967H2.09174C2.40268 12.9106 3.65504 10.0262 5.67583 7.71219ZM38.9114 18.3627L34.0552 20.3842V17.6303L39.6757 15.2875C41.2657 14.6076 43.1058 15.3455 43.7857 16.9354C44.0602 17.5776 44.1122 18.2932 43.9333 18.9683C42.4821 17.8982 40.5755 17.6683 38.9114 18.3627ZM42.8437 20.6526C42.6161 20.8345 42.3647 20.9841 42.0964 21.0976L34.0552 24.4482V22.5464L39.6757 20.2046C40.7333 19.7558 41.9521 19.9282 42.8437 20.6526ZM39.6288 26.9427L43.62 30.9339H41.0397C40.4887 30.9339 40.0419 31.3807 40.0419 31.9317V34.512L32.4727 26.9427H39.6288V26.9427ZM31.872 17.9625V24.9471H28.0684V17.9625H31.872ZM19.0882 30.9339H16.5079L20.4991 26.9427H27.0706H27.6553L20.086 34.512V31.9317C20.086 31.3807 19.6392 30.9339 19.0882 30.9339ZM20.4522 20.2086L26.0728 22.5464V24.4482L18.0315 21.0976C17.7634 20.9855 17.5119 20.8372 17.2842 20.6566C18.1758 19.9324 19.3947 19.7601 20.4522 20.2086ZM16.1946 18.9683C15.7642 17.2833 16.7813 15.5683 18.4663 15.1379C18.7155 15.0743 18.9716 15.0414 19.2289 15.04C19.6477 15.041 20.0622 15.1252 20.4482 15.2875L26.0728 17.6303V20.3842L21.2205 18.3617C19.5548 17.6681 17.6474 17.8983 16.1946 18.9683ZM4.12126 24.9471V25.2165C2.80592 23.0196 2.07653 20.522 2.00294 17.9625H14.1132C14.1132 18.0394 14.0992 18.1152 14.0992 18.193C14.0955 20.2702 15.3452 22.1444 17.2642 22.9396L22.0816 24.9471H4.12126V24.9471ZM53.7766 27.3418L30.0221 51.7739L6.35333 28.1061C5.98614 27.737 5.63879 27.3486 5.31263 26.9427H17.6773L13.3938 31.2263C13.0041 31.616 13.0043 32.2477 13.394 32.6374C13.5811 32.8244 13.8348 32.9295 14.0992 32.9295H18.0904V36.9207C18.0905 37.4717 18.5373 37.9183 19.0885 37.9182C19.353 37.9182 19.6066 37.8131 19.7937 37.6261L30.064 27.3558L40.3343 37.6261C40.7241 38.0158 41.3558 38.0156 41.7454 37.6259C41.9324 37.4388 42.0375 37.1851 42.0375 36.9207V32.9295H46.0287C46.5798 32.9294 47.0264 32.4826 47.0263 31.9314C47.0263 31.6669 46.9211 31.4133 46.7342 31.2263L42.4506 26.9427H54.1248C54.0111 27.0744 53.9013 27.2131 53.7766 27.3418ZM55.6624 24.9471H38.0463L42.8637 22.9396C44.7827 22.1444 46.0325 20.2702 46.0287 18.193C46.0287 18.1152 46.0177 18.0394 46.0147 17.9625H57.9444C57.7791 20.4448 56.9946 22.8461 55.6624 24.9471Z" fill="url(#paint0_linear)"/>
<defs>
<linearGradient id="paint0_linear" x1="0.101273" y1="27.0968" x2="60.1013" y2="27.0968" gradientUnits="userSpaceOnUse">
<stop stop-color="#C72C76"/>
<stop offset="1" stop-color="#B12BC7"/>
</linearGradient>
</defs>
</svg>
