<svg width="70" height="60" viewBox="0 0 70 60" fill="none" xmlns="http://www.w3.org/2000/svg">
<path d="M50.2519 1.93867C50.0772 1.40604 49.5037 1.11612 48.9715 1.29064L48.6112 1.40875V1.01466C48.6112 0.45416 48.1569 0 47.5966 0C47.0362 0 46.5819 0.45416 46.5819 1.01466V1.40888L46.2217 1.29078C45.6893 1.11666 45.116 1.40631 44.9413 1.93881C44.7669 2.4713 45.0571 3.04451 45.5895 3.21917L45.9634 3.34187L45.7281 3.66886C45.2431 4.34273 45.7318 5.27648 46.5507 5.27648C47.142 5.27648 47.372 4.85858 47.5967 4.54647L47.8184 4.85439C48.1456 5.30895 48.7795 5.41272 49.2348 5.08505C49.6895 4.75765 49.7928 4.1237 49.4654 3.66873L49.23 3.34174L49.604 3.21903C50.1363 3.04437 50.4265 2.47116 50.2519 1.93867Z" fill="url(#paint0_linear)"/>
<path d="M60.2877 12.8299C60.1131 12.2973 59.5396 12.0074 59.0074 12.1819L58.6471 12.3V11.9059C58.6471 11.3454 58.1928 10.8912 57.6325 10.8912C57.0721 10.8912 56.6178 11.3454 56.6178 11.9059V12.3L56.2575 12.1819C55.7252 12.008 55.152 12.2974 54.9772 12.8299C54.8028 13.3623 55.093 13.9355 55.6253 14.1101L55.9993 14.2328L55.7639 14.5598C55.4366 15.0147 55.5398 15.6488 55.9947 15.9762C56.4501 16.304 57.0836 16.1998 57.411 15.7455L57.6326 15.4376C57.8458 15.7337 58.079 16.1676 58.6786 16.1676C59.4958 16.1676 59.987 15.2349 59.5013 14.56L59.2659 14.233L59.6399 14.1103C60.1722 13.9356 60.4624 13.3624 60.2877 12.8299Z" fill="url(#paint1_linear)"/>
<path d="M46.7415 11.4994C47.3018 11.4994 47.7561 11.0451 47.7561 10.4847C47.7561 9.92437 47.3018 9.47009 46.7415 9.47009C46.1811 9.47009 45.7268 9.92437 45.7268 10.4847C45.7268 11.0451 46.1811 11.4994 46.7415 11.4994Z" fill="url(#paint2_linear)"/>
<path d="M62.9761 27.9247C63.5365 27.9247 63.9907 27.4704 63.9907 26.91C63.9907 26.3497 63.5365 25.8954 62.9761 25.8954C62.4157 25.8954 61.9614 26.3497 61.9614 26.91C61.9614 27.4704 62.4157 27.9247 62.9761 27.9247Z" fill="url(#paint3_linear)"/>
<path d="M52.4212 20.1579C52.9815 20.1579 53.4358 19.7036 53.4358 19.1432C53.4358 18.5828 52.9815 18.1285 52.4212 18.1285C51.8608 18.1285 51.4065 18.5828 51.4065 19.1432C51.4065 19.7036 51.8608 20.1579 52.4212 20.1579Z" fill="url(#paint4_linear)"/>
<path d="M63.3818 6.89967C63.9422 6.89967 64.3965 6.4454 64.3965 5.88502C64.3965 5.32464 63.9422 4.87036 63.3818 4.87036C62.8215 4.87036 62.3672 5.32464 62.3672 5.88502C62.3672 6.4454 62.8215 6.89967 63.3818 6.89967Z" fill="url(#paint5_linear)"/>
<path d="M44.635 12.8847C44.1067 12.2307 43.358 12.1651 43.358 12.1651C42.7763 12.0847 42.2845 12.4969 42.2081 13.0242C42.1265 13.5814 42.5136 14.0932 43.0658 14.1741L41.2557 15.9382C41.0162 16.1723 40.9066 16.5078 40.9635 16.8366L41.391 19.3287C41.391 19.3287 41.391 19.3287 41.3896 19.3287C38.4085 17.7603 38.9328 17.7706 35.974 19.3272H35.9727C35.9712 19.3287 35.9712 19.3287 35.9699 19.3287L36.3974 16.8366C36.4542 16.5078 36.3446 16.1724 36.1065 15.9382L34.2951 14.1741L36.7979 13.8103C37.128 13.7616 37.4135 13.5545 37.561 13.2555L38.6812 10.9881L39.1222 11.8823C39.294 12.2314 39.6432 12.449 40.0327 12.449C40.7838 12.449 41.2734 11.659 40.943 10.9839L40.5008 10.0898C39.7556 8.56372 37.5865 8.60214 36.8602 10.0898L35.9782 11.8783C33.9653 12.1706 33.3359 12.1296 32.7259 12.8847C32.4256 13.254 32.2659 13.7018 32.2659 14.1794C32.2581 15.2318 32.873 15.62 34.3074 17.0192L33.9706 18.9863C33.9503 19.0999 33.9408 19.2176 33.9408 19.3353C33.9395 19.8792 34.164 20.4068 34.555 20.7829C34.9478 21.1632 35.4553 21.3606 35.9728 21.3606C36.6062 21.3606 36.8293 21.1706 38.6798 20.1971H38.6812L40.4467 21.125C41.7891 21.837 43.4239 20.8489 43.4203 19.3353C43.4203 19.2176 43.4108 19.0999 43.3905 18.9863L43.0536 17.0192L44.4822 15.6271C45.2441 14.8913 45.3008 13.7034 44.635 12.8847Z" fill="url(#paint6_linear)"/>
<path d="M68.2522 30.9132H54.7475L55.2288 30.4439C56.585 29.1223 55.8355 26.8177 53.9623 26.5457L51.3564 26.1669L50.191 23.8056C49.353 22.1074 46.9299 22.1082 46.0923 23.8056L44.9268 26.1669L42.3211 26.5457C40.4472 26.8178 39.6989 29.1227 41.0544 30.4439L41.5359 30.9132H37.9056C37.965 30.3271 37.7712 29.72 37.3233 29.2718L31.5836 23.5321C30.7923 22.7409 29.505 22.7409 28.7139 23.5321C26.7523 25.4937 26.173 26.0729 25.1823 27.0637L21.2928 23.1742C20.3419 22.2232 18.9986 21.8633 17.6993 22.2113C16.4001 22.5593 15.4167 23.5429 15.0686 24.8419L13.0346 32.433C11.8201 32.9488 10.8673 33.9012 10.3514 35.1163L2.76046 37.1502C-0.00576462 37.8912 -0.934107 41.3475 1.09263 43.3747L4.98215 47.2642C2.98706 49.2593 1.64298 50.6035 1.4506 50.7957C0.657415 51.5888 0.657415 52.8725 1.4506 53.6657L7.19031 59.4056C7.58589 59.8012 8.10553 59.9989 8.62517 59.9989C9.14481 59.9989 9.66445 59.8012 10.06 59.4056L36.5222 32.9425H67.2375V56.9561C67.2362 57.5134 66.7816 57.9692 66.2228 57.9707H31.9958C31.4371 57.9692 30.9825 57.5134 30.9811 56.9561V44.0158C30.9811 43.4571 30.5266 43.0012 29.9665 43.0012C29.4078 43.0012 28.9532 43.4557 28.9518 44.0131C28.9518 44.0145 28.9518 44.0158 28.9518 44.0158V56.9561C28.9518 57.7691 29.2684 58.5335 29.8434 59.1085C30.4184 59.682 31.1827 60 31.9958 60H66.2228C67.8976 60 69.2668 58.6454 69.2668 56.9561V31.9279C69.2668 31.3632 68.8051 30.9132 68.2522 30.9132ZM17.0284 25.3674C17.3653 24.1101 18.9362 23.6878 19.8575 24.6092L23.7471 28.4987C22.3502 29.8956 20.7483 31.4975 19.0569 33.189L20.2811 28.6201C20.4262 28.0787 20.105 27.5224 19.5637 27.3773C19.0224 27.2322 18.466 27.5535 18.3211 28.0948L17.1426 32.4931C16.5399 32.2145 15.8958 32.0598 15.2429 32.0318L17.0284 25.3674ZM14.1615 34.1807C15.2616 33.8598 16.44 34.1713 17.2322 35.0139C15.8091 36.4369 14.3545 37.8915 12.9316 39.3144C11.2124 37.6945 11.9228 34.8337 14.1615 34.1807ZM2.52722 41.94C2.09498 41.5076 1.93128 40.8969 2.08957 40.3064C2.24772 39.7158 2.69484 39.2688 3.28524 39.1106L9.94977 37.3249C9.97777 37.9778 10.1325 38.6219 10.411 39.2247L6.01277 40.4032C5.47135 40.5481 5.15018 41.1047 5.29534 41.646C5.44037 42.1873 5.99667 42.5084 6.53795 42.3635L11.1069 41.1393C9.41538 42.8308 7.81304 44.4333 6.4166 45.8296L2.52722 41.94ZM8.62476 57.9707L2.88519 52.231C3.09989 52.0163 4.74729 50.3689 7.13417 47.982C7.13417 47.9819 7.13417 47.9819 7.13417 47.9819L7.1343 47.9818C8.99315 46.1229 23.6617 31.4541 25.8992 29.2164L25.8995 29.2162C27.6789 27.4366 25.3629 29.7527 30.1483 24.9672L35.8888 30.7058L8.62476 57.9707ZM53.8124 28.9908L51.8402 30.9134H44.4429C42.3224 28.8462 42.3381 28.9367 42.4059 28.7283C42.4745 28.5173 42.374 28.5886 45.7464 28.0986C46.0769 28.0507 46.3627 27.843 46.5104 27.5435C48.0234 24.4779 47.9224 24.5609 48.1415 24.5609C48.3608 24.5609 48.2597 24.4779 49.7726 27.5435C49.9204 27.843 50.206 28.0505 50.5365 28.0986L53.6705 28.5539C53.8822 28.5846 53.9658 28.8412 53.8124 28.9908Z" fill="url(#paint7_linear)"/>
<defs>
<linearGradient id="paint0_linear" x1="44.8998" y1="2.63824" x2="50.3118" y2="2.63824" gradientUnits="userSpaceOnUse">
<stop stop-color="#C72C76"/>
<stop offset="1" stop-color="#B12BC7"/>
</linearGradient>
<linearGradient id="paint1_linear" x1="54.9356" y1="13.5294" x2="60.3477" y2="13.5294" gradientUnits="userSpaceOnUse">
<stop stop-color="#C72C76"/>
<stop offset="1" stop-color="#B12BC7"/>
</linearGradient>
<linearGradient id="paint2_linear" x1="45.7302" y1="10.4847" x2="47.7595" y2="10.4847" gradientUnits="userSpaceOnUse">
<stop stop-color="#C72C76"/>
<stop offset="1" stop-color="#B12BC7"/>
</linearGradient>
<linearGradient id="paint3_linear" x1="61.9649" y1="26.91" x2="63.9942" y2="26.91" gradientUnits="userSpaceOnUse">
<stop stop-color="#C72C76"/>
<stop offset="1" stop-color="#B12BC7"/>
</linearGradient>
<linearGradient id="paint4_linear" x1="51.4099" y1="19.1432" x2="53.4392" y2="19.1432" gradientUnits="userSpaceOnUse">
<stop stop-color="#C72C76"/>
<stop offset="1" stop-color="#B12BC7"/>
</linearGradient>
<linearGradient id="paint5_linear" x1="62.3706" y1="5.88502" x2="64.3999" y2="5.88502" gradientUnits="userSpaceOnUse">
<stop stop-color="#C72C76"/>
<stop offset="1" stop-color="#B12BC7"/>
</linearGradient>
<linearGradient id="paint6_linear" x1="32.2875" y1="15.1602" x2="45.1185" y2="15.1602" gradientUnits="userSpaceOnUse">
<stop stop-color="#C72C76"/>
<stop offset="1" stop-color="#B12BC7"/>
</linearGradient>
<linearGradient id="paint7_linear" x1="0.116914" y1="41.0406" x2="69.3837" y2="41.0406" gradientUnits="userSpaceOnUse">
<stop stop-color="#C72C76"/>
<stop offset="1" stop-color="#B12BC7"/>
</linearGradient>
</defs>
</svg>
