<svg width="52" height="60" viewBox="0 0 52 60" fill="none" xmlns="http://www.w3.org/2000/svg">
<path d="M34.2432 19.7589C33.1226 18.6295 31.5962 17.9962 30.0049 18.0001H29.9912C28.5137 17.9957 27.0894 18.5474 26 19.545C24.9092 18.544 23.4805 17.9923 22 18.0001C20.4082 17.9937 18.8794 18.6226 17.753 19.7481C16.6265 20.8731 15.9956 22.401 16 23.9932C16 26.3682 17.2002 28.8219 19.5669 31.293C21.3374 33.0777 23.3369 34.6197 25.5132 35.879C25.8145 36.0465 26.1812 36.0465 26.4829 35.879C26.874 35.6583 36 30.5162 36 24.0001C36.0039 22.4088 35.3711 20.8814 34.2432 19.7589ZM26 33.838C24.1856 32.7291 22.5108 31.4078 21.0098 29.901C19.0113 27.8233 18 25.837 18 24.0001C17.9932 22.9371 18.4121 21.9156 19.1641 21.1641C19.9155 20.4122 20.937 19.9932 22 20.0001H22.0122C23.273 20.0055 24.4561 20.6099 25.2002 21.628C25.3887 21.88 25.6851 22.0279 26 22.0279C26.315 22.0279 26.6113 21.88 26.7998 21.628C27.5415 20.6046 28.729 19.9991 29.9932 20.0001H30C31.0615 19.9981 32.0801 20.419 32.8306 21.1695C33.5811 21.92 34.002 22.9386 34 24.0001C34 28.587 27.7998 32.7301 26 33.838Z" fill="url(#paint0_linear)"/>
<path d="M45.999 26C46.0082 16.1484 38.8417 7.75777 29.1103 6.22506C19.3789 4.69234 9.98041 10.4746 6.96137 19.852C3.94233 29.2295 8.20112 39.4087 16.999 43.8418V46H14.999C14.4467 46 13.999 46.4477 13.999 47V51C13.999 51.1552 14.0346 51.3081 14.1039 51.4467L15.999 55.2358V59C15.999 59.5522 16.4467 60 16.999 60H34.999C35.5512 60 35.999 59.5522 35.999 59V55.2358L37.8989 51.4467C37.9663 51.3076 38.0004 51.1547 37.999 51V47C37.999 46.4477 37.5512 46 36.999 46H34.999V43.8418C41.726 40.4331 45.975 33.5415 45.999 26ZM33.999 58H17.999V56H33.999V58ZM35.999 50.7641L34.3808 54H17.6171L15.999 50.7641V48H35.999V50.7641ZM18.999 46V43.2158C18.999 42.8271 18.7734 42.4741 18.4208 42.31C10.7597 38.7544 6.60151 30.3501 8.42231 22.1025C10.2426 13.8554 17.5532 7.98287 25.999 7.98287C34.4448 7.98287 41.7553 13.8554 43.5756 22.1025C45.3964 30.3501 41.2382 38.7544 33.5771 42.31C33.2246 42.4741 32.999 42.8271 32.999 43.2158V46H18.999Z" fill="url(#paint1_linear)"/>
<path d="M26 4C26.5522 4 27 3.55225 27 3V1C27 0.447754 26.5522 0 26 0C25.4478 0 25 0.447754 25 1V3C25 3.55225 25.4478 4 26 4Z" fill="url(#paint2_linear)"/>
<path d="M13.6333 6.58106C13.811 6.89307 14.1416 7.08594 14.5004 7.08692C14.8593 7.0874 15.1914 6.896 15.3701 6.58496C15.5488 6.27344 15.5468 5.89063 15.3657 5.58106L14.3657 3.8501C14.1879 3.53809 13.8574 3.34522 13.4985 3.34424C13.1396 3.34327 12.8076 3.53516 12.6289 3.84619C12.4501 4.15723 12.4521 4.54053 12.6333 4.8501L13.6333 6.58106Z" fill="url(#paint3_linear)"/>
<path d="M3.84994 14.3663L5.58285 15.3663C5.73471 15.4542 5.90707 15.5006 6.08285 15.5001C6.53549 15.5001 6.93149 15.1959 7.04868 14.7589C7.16586 14.3218 6.97495 13.8604 6.58286 13.6339L4.84994 12.6339C4.37192 12.3624 3.76449 12.5274 3.48959 13.0035C3.21469 13.4796 3.37582 14.088 3.84994 14.3663Z" fill="url(#paint4_linear)"/>
<path d="M4 26C4 25.4478 3.55225 25 3 25H1C0.447754 25 0 25.4478 0 26C0 26.5522 0.447754 27 1 27H3C3.55225 27 4 26.5522 4 26Z" fill="url(#paint5_linear)"/>
<path d="M5.58252 36.6337L3.84961 37.6337C3.5376 37.8115 3.34473 38.142 3.34375 38.5009C3.34278 38.8598 3.53467 39.1918 3.84571 39.3705C4.15674 39.5493 4.54004 39.5473 4.84961 39.3661L6.58252 38.3662C6.89453 38.1884 7.0874 37.8579 7.08838 37.499C7.08887 37.1401 6.89746 36.8081 6.58643 36.6293C6.2749 36.4506 5.89209 36.4526 5.58252 36.6337Z" fill="url(#paint6_linear)"/>
<path d="M48.1528 37.6337L46.4199 36.6337C46.1104 36.4526 45.7275 36.4506 45.416 36.6293C45.105 36.8081 44.9136 37.1401 44.9141 37.499C44.915 37.8579 45.1079 38.1884 45.4199 38.3662L47.1528 39.3662C47.6309 39.6376 48.2383 39.4726 48.5132 38.9965C48.7881 38.5205 48.6269 37.9121 48.1528 37.6337V37.6337Z" fill="url(#paint7_linear)"/>
<path d="M51 25H49C48.4478 25 48 25.4478 48 26C48 26.5522 48.4478 27 49 27H51C51.5522 27 52 26.5522 52 26C52 25.4478 51.5522 25 51 25Z" fill="url(#paint8_linear)"/>
<path d="M45.918 15.5001C46.0938 15.5006 46.2661 15.4542 46.418 15.3663L48.1509 14.3663C48.625 14.088 48.7861 13.4796 48.5112 13.0035C48.2363 12.5274 47.6289 12.3624 47.1509 12.6339L45.418 13.6339C45.0259 13.8604 44.835 14.3218 44.9522 14.7589C45.0694 15.1959 45.4654 15.5001 45.918 15.5001Z" fill="url(#paint9_linear)"/>
<path d="M37.0001 6.94678C37.4786 7.22315 38.09 7.05908 38.3663 6.58106L39.3663 4.8501C39.5475 4.54053 39.5494 4.15723 39.3707 3.84619C39.192 3.53516 38.86 3.34327 38.5011 3.34424C38.1422 3.34522 37.8117 3.53809 37.6339 3.8501L36.6339 5.58106C36.358 6.05908 36.5221 6.6709 37.0001 6.94678V6.94678Z" fill="url(#paint10_linear)"/>
<defs>
<linearGradient id="paint0_linear" x1="16.0338" y1="27.0023" x2="36.0338" y2="27.0023" gradientUnits="userSpaceOnUse">
<stop stop-color="#C72C76"/>
<stop offset="1" stop-color="#B12BC7"/>
</linearGradient>
<linearGradient id="paint1_linear" x1="6.06361" y1="32.9899" x2="46.0665" y2="32.9899" gradientUnits="userSpaceOnUse">
<stop stop-color="#C72C76"/>
<stop offset="1" stop-color="#B12BC7"/>
</linearGradient>
<linearGradient id="paint2_linear" x1="25.0034" y1="2" x2="27.0034" y2="2" gradientUnits="userSpaceOnUse">
<stop stop-color="#C72C76"/>
<stop offset="1" stop-color="#B12BC7"/>
</linearGradient>
<linearGradient id="paint3_linear" x1="12.5012" y1="5.21558" x2="15.5079" y2="5.21558" gradientUnits="userSpaceOnUse">
<stop stop-color="#C72C76"/>
<stop offset="1" stop-color="#B12BC7"/>
</linearGradient>
<linearGradient id="paint4_linear" x1="3.36176" y1="14.0016" x2="7.08917" y2="14.0016" gradientUnits="userSpaceOnUse">
<stop stop-color="#C72C76"/>
<stop offset="1" stop-color="#B12BC7"/>
</linearGradient>
<linearGradient id="paint5_linear" x1="0.00675154" y1="26" x2="4.00675" y2="26" gradientUnits="userSpaceOnUse">
<stop stop-color="#C72C76"/>
<stop offset="1" stop-color="#B12BC7"/>
</linearGradient>
<linearGradient id="paint6_linear" x1="3.35007" y1="37.9999" x2="7.0947" y2="37.9999" gradientUnits="userSpaceOnUse">
<stop stop-color="#C72C76"/>
<stop offset="1" stop-color="#B12BC7"/>
</linearGradient>
<linearGradient id="paint7_linear" x1="44.9204" y1="37.9967" x2="48.6536" y2="37.9967" gradientUnits="userSpaceOnUse">
<stop stop-color="#C72C76"/>
<stop offset="1" stop-color="#B12BC7"/>
</linearGradient>
<linearGradient id="paint8_linear" x1="48.0068" y1="26" x2="52.0068" y2="26" gradientUnits="userSpaceOnUse">
<stop stop-color="#C72C76"/>
<stop offset="1" stop-color="#B12BC7"/>
</linearGradient>
<linearGradient id="paint9_linear" x1="44.9243" y1="14.0016" x2="48.6517" y2="14.0016" gradientUnits="userSpaceOnUse">
<stop stop-color="#C72C76"/>
<stop offset="1" stop-color="#B12BC7"/>
</linearGradient>
<linearGradient id="paint10_linear" x1="36.5051" y1="5.21264" x2="39.5086" y2="5.21264" gradientUnits="userSpaceOnUse">
<stop stop-color="#C72C76"/>
<stop offset="1" stop-color="#B12BC7"/>
</linearGradient>
</defs>
</svg>
