<svg width="13" height="13" viewBox="0 0 13 13" fill="none" xmlns="http://www.w3.org/2000/svg">
<path d="M6.76902 0.827947L8.06969 3.46339C8.25905 3.84708 8.62509 4.11302 9.04851 4.17455L11.9569 4.59716C12.203 4.63291 12.3012 4.93531 12.1232 5.10887L10.0186 7.16027C9.71224 7.45893 9.57243 7.88923 9.64476 8.31094L10.1416 11.2076C10.1836 11.4526 9.92637 11.6395 9.70628 11.5238L7.10494 10.1562C6.72622 9.95712 6.27378 9.95712 5.89506 10.1562L3.29372 11.5238C3.07363 11.6395 2.8164 11.4526 2.85843 11.2076L3.35524 8.31094C3.42757 7.88923 3.28776 7.45893 2.98137 7.16027L0.876843 5.10887C0.698786 4.93531 0.797041 4.63291 1.04311 4.59716L3.95149 4.17455C4.37491 4.11302 4.74095 3.84708 4.93031 3.46339L6.23098 0.827946C6.34102 0.604974 6.65898 0.604972 6.76902 0.827947Z" stroke="#B12BC6"/>
</svg>
