<svg width="13" height="13" viewBox="0 0 13 13" fill="none" xmlns="http://www.w3.org/2000/svg">
<path d="M5.78261 0.606663C6.07606 0.0120669 6.92394 0.0120681 7.21739 0.606665L8.51806 3.24211C8.63459 3.47822 8.85984 3.64188 9.12041 3.67974L12.0288 4.10235C12.685 4.1977 12.947 5.00408 12.4722 5.46691L10.3676 7.51832C10.1791 7.70211 10.093 7.96691 10.1376 8.22642L10.6344 11.1231C10.7465 11.7766 10.0605 12.2749 9.47361 11.9664L6.87227 10.5988C6.63921 10.4763 6.36079 10.4763 6.12773 10.5988L3.52639 11.9664C2.93949 12.2749 2.25354 11.7766 2.36563 11.1231L2.86244 8.22642C2.90695 7.96691 2.82091 7.70211 2.63236 7.51832L0.527837 5.46691C0.0530232 5.00408 0.31503 4.1977 0.971206 4.10235L3.87959 3.67974C4.14016 3.64188 4.36541 3.47822 4.48194 3.24211L5.78261 0.606663Z" fill="#C72C77"/>
</svg>
